# Blender v2.75 (sub 0) OBJ File: 'masamune--noscabbard-united.blend'
# www.blender.org
mtllib masamune-noscabbard-united.mtl
o sword
v -0.320000 0.100000 0.070000
v -0.320000 0.100000 -0.070000
v 0.022249 0.100000 -0.070000
v 0.022249 0.100000 0.070000
v -2.200000 24.858402 0.050000
v -2.200000 24.858402 -0.050000
v -1.877751 24.858402 -0.050000
v -1.877751 24.858402 0.050000
v -1.644498 24.974871 0.000000
v 0.300000 0.100000 -0.000000
v -2.385174 25.591522 0.000000
v -0.320000 0.687397 0.070000
v -0.320000 0.687400 -0.070000
v 0.022249 0.687400 -0.070000
v 0.022249 0.687397 0.070000
v 0.300000 0.690161 -0.000000
v -0.300000 0.686329 0.050000
v -0.300000 0.686329 -0.050000
v 0.022249 0.686329 -0.050000
v 0.022249 0.686329 0.050000
v 0.255502 0.691686 -0.000000
v -0.300000 2.539783 0.050000
v -0.300000 2.539783 -0.050000
v 0.022249 2.539783 -0.050000
v 0.022249 2.539783 0.050000
v 0.255502 2.572632 -0.000000
v -0.527460 10.585099 0.050000
v -0.527460 10.585099 -0.050000
v -0.205211 10.585099 -0.050000
v -0.205211 10.585099 0.050000
v 0.028042 10.635958 -0.000000
v -0.823243 15.287066 0.050000
v -0.823243 15.287066 -0.050000
v -0.500994 15.287066 -0.050000
v -0.500994 15.287066 0.050000
v -0.267741 15.359538 -0.000000
v -1.209048 18.821150 0.050000
v -1.209048 18.821150 -0.050000
v -0.886799 18.821150 -0.050000
v -0.886799 18.821150 0.050000
v -0.653546 18.909864 -0.000000
v -0.320450 4.466584 0.050000
v -0.320450 4.466584 -0.050000
v 0.001799 4.466584 -0.050000
v 0.001799 4.466584 0.050000
v 0.235052 4.503745 -0.000000
v -0.380471 6.924132 0.050000
v -0.380471 6.924132 -0.050000
v -0.058223 6.924132 -0.050000
v -0.058223 6.924132 0.050000
v 0.175031 6.966795 -0.000000
v -1.664194 22.093748 0.050000
v -1.664194 22.093748 -0.050000
v -1.341945 22.093748 -0.050000
v -1.341945 22.093748 0.050000
v -1.108692 22.197508 -0.000000
v -0.629635 12.899204 0.050000
v -0.629635 12.899204 -0.050000
v -0.307386 12.899204 -0.050000
v -0.307386 12.899204 0.050000
v -0.074133 12.960700 -0.000000
v 0.200000 -6.000000 -0.100000
v 0.200000 -6.000000 0.100000
v -0.200000 -6.000000 0.100000
v -0.200000 -6.000000 -0.100000
v 0.200001 0.000000 -0.100000
v 0.199999 0.000000 0.100000
v -0.200000 0.000000 0.100000
v -0.200000 0.000000 -0.100000
v 0.700001 0.000000 -0.100000
v -0.700000 0.000000 0.100000
v -0.700000 0.100000 0.100000
v -0.700000 0.000000 0.600000
v -0.700000 0.100000 0.600000
v 0.699999 0.000000 0.600000
v 0.699999 0.100000 0.600000
v 0.700001 0.000000 -0.600000
v 0.700001 0.100000 -0.600000
v -0.700000 0.100000 -0.100000
v -0.700000 0.000000 -0.600000
v -0.700000 0.100000 -0.600000
vt 0.893664 0.086185
vt 0.893664 0.062907
vt 0.931763 0.062907
vt 0.823840 0.043227
vt 0.983672 0.043227
vt 0.983523 0.056765
vt 0.822909 0.027190
vt 0.823841 0.015923
vt 0.983672 0.015923
vt 0.823692 0.002385
vt 0.983523 0.002385
vt 0.841959 0.086185
vt 0.822909 0.075142
vt 0.861008 0.075142
vt 0.238039 0.033137
vt 0.171102 0.029287
vt 0.357027 0.002385
vt 0.822909 0.031960
vt 0.983492 0.031960
vt 0.544457 0.970713
vt 0.611394 0.966863
vt 0.730383 0.997614
vt 0.855565 0.114807
vt 0.861008 0.115603
vt 0.822909 0.115603
vt 0.855565 0.101996
vt 0.861008 0.101997
vt 0.828352 0.101996
vt 0.822909 0.101997
vt 0.841959 0.090955
vt 0.828352 0.114807
vt 0.841959 0.092725
vt 0.763039 0.075834
vt 0.763039 0.002385
vt 0.790252 0.002385
vt 0.601685 0.076362
vt 0.643446 0.002937
vt 0.730382 0.004013
vt 0.163277 0.923100
vt 0.228330 0.923638
vt 0.270091 0.997063
vt 0.315266 0.922562
vt 0.357027 0.995987
vt 0.536632 0.076899
vt 0.579012 0.002385
vt 0.763039 0.152255
vt 0.790252 0.075834
vt 0.650724 0.153837
vt 0.563788 0.152761
vt 0.125282 0.846531
vt 0.190433 0.847239
vt 0.277369 0.846163
vt 0.498638 0.153469
vt 0.698331 0.967939
vt 0.324975 0.032061
vt 0.763039 0.487413
vt 0.763039 0.395382
vt 0.790253 0.395382
vt 0.544137 0.488930
vt 0.457200 0.487854
vt 0.481776 0.395839
vt 0.018146 0.510474
vt 0.083845 0.512146
vt 0.108420 0.604161
vt 0.170781 0.511070
vt 0.195357 0.603085
vt 0.391502 0.489526
vt 0.416317 0.397089
vt 0.763039 0.723940
vt 0.763039 0.582658
vt 0.790253 0.582658
vt 0.567020 0.725463
vt 0.480084 0.724387
vt 0.455629 0.583096
vt 0.040416 0.272862
vt 0.106728 0.275613
vt 0.082274 0.416904
vt 0.193665 0.274537
vt 0.169210 0.415828
vt 0.413772 0.727138
vt 0.389683 0.585203
vt 0.763039 0.855081
vt 0.790253 0.723940
vt 0.616073 0.856628
vt 0.529136 0.855552
vt 0.089130 0.141102
vt 0.155781 0.144448
vt 0.242717 0.143372
vt 0.462486 0.858898
vt 0.763039 0.249835
vt 0.790252 0.152255
vt 0.611545 0.251394
vt 0.524608 0.250318
vt 0.085979 0.748756
vt 0.151253 0.749682
vt 0.238189 0.748606
vt 0.459334 0.251244
vt 0.790252 0.249835
vt 0.568712 0.396915
vt 0.042961 0.602911
vt 0.790253 0.966351
vt 0.776646 0.995995
vt 0.763039 0.966351
vt 0.790253 0.487413
vt 0.542566 0.584172
vt 0.016328 0.414797
vt 0.931763 0.086184
vt 0.823691 0.056765
vt 0.983492 0.027190
vt 0.822909 0.061535
vt 0.861008 0.061535
vt 0.688621 0.077438
vt 0.205657 0.997615
vt 0.790253 0.855081
vt 0.853403 0.539216
vt 0.801047 0.539216
vt 0.801047 0.473856
vt 0.984293 0.238562
vt 0.853403 0.238562
vt 0.853403 0.156863
vt 0.685864 0.009804
vt 0.685864 0.990196
vt 0.633508 0.990196
vt 0.256545 0.990196
vt 0.151833 0.990196
vt 0.151833 0.009804
vt 0.769634 0.990196
vt 0.717278 0.990196
vt 0.717278 0.009804
vt 0.120419 0.990196
vt 0.015707 0.990196
vt 0.015707 0.009804
vt 0.602094 0.258170
vt 0.602094 0.486928
vt 0.575916 0.486928
vt 0.528796 0.486928
vt 0.502618 0.486928
vt 0.502618 0.258170
vt 0.471204 0.486928
vt 0.340314 0.486928
vt 0.340314 0.405229
vt 0.801047 0.339869
vt 0.801047 0.258170
vt 0.827225 0.258170
vt 0.602094 0.009804
vt 0.602094 0.238562
vt 0.471204 0.009804
vt 0.884817 0.372549
vt 0.884817 0.454248
vt 0.858639 0.454248
vt 0.853403 0.473856
vt 0.853403 0.091503
vt 0.801047 0.091503
vt 0.801047 0.009804
vt 0.984293 0.009804
vt 0.633508 0.009804
vt 0.256545 0.009804
vt 0.769634 0.009804
vt 0.120419 0.009804
vt 0.575916 0.258170
vt 0.528796 0.258170
vt 0.340314 0.339869
vt 0.287958 0.339869
vt 0.287958 0.258170
vt 0.471204 0.258170
vt 0.287958 0.238562
vt 0.287958 0.009804
vt 0.418848 0.009804
vt 0.827225 0.454249
vt 0.801047 0.454249
vt 0.858639 0.258170
vt 0.884817 0.339869
vt 0.858639 0.339869
vt 0.884817 0.258170
vn -1.000000 -0.000000 0.000000
vn 0.000000 0.000000 -1.000000
vn 0.244400 0.000000 0.969700
vn 0.000000 -0.000000 1.000000
vn 0.000000 -1.000000 0.000000
vn 0.131200 0.157500 0.978800
vn 0.244400 0.000000 -0.969700
vn 0.131200 0.157500 -0.978800
vn 0.053500 0.998600 0.000000
vn 0.000000 0.998600 0.053500
vn -0.023400 0.998300 -0.053300
vn 0.000000 0.998600 -0.053300
vn 0.033100 0.965600 -0.257800
vn 0.209600 0.000000 0.977800
vn 0.209600 0.000000 -0.977800
vn -0.999900 -0.010600 0.000000
vn 0.209300 0.002200 0.977900
vn 0.209300 0.002200 -0.977800
vn 0.000000 0.068000 -0.997700
vn -0.000000 0.068000 0.997700
vn -0.999000 -0.044100 0.000000
vn 0.207300 0.009200 0.978200
vn 0.207700 0.009100 -0.978200
vn -0.994100 -0.108500 0.000000
vn 0.201500 0.022000 0.979200
vn 0.203000 0.022100 -0.978900
vn -0.990500 -0.137800 0.000000
vn 0.197800 0.027500 0.979900
vn 0.199500 0.027600 -0.979500
vn -0.999700 -0.024400 0.000000
vn 0.208700 0.005100 0.978000
vn 0.208800 0.005100 -0.977900
vn -0.999200 -0.040100 0.000000
vn 0.207900 0.008300 0.978100
vn 0.208100 0.008300 -0.978100
vn -0.969600 -0.244900 0.000000
vn 0.191700 0.037100 0.980800
vn 0.193500 0.037300 -0.980400
vn -0.996700 -0.080800 0.000000
vn 0.204600 0.016600 0.978700
vn 0.205400 0.016600 -0.978500
vn -0.981700 -0.190300 0.000000
vn 0.053300 0.998600 0.000000
vn 0.033100 0.965600 0.257800
vn -0.023400 0.998300 0.053500
vn 0.209300 0.002200 0.977800
vn 0.209300 0.002200 -0.977900
vn 0.207700 0.009100 0.978200
vn 0.207300 0.009200 -0.978200
vn 0.203000 0.022100 0.978900
vn 0.201500 0.022000 -0.979200
vn 0.199500 0.027600 0.979500
vn 0.197800 0.027500 -0.979900
vn 0.208800 0.005100 0.977900
vn 0.208700 0.005100 -0.978000
vn 0.208100 0.008300 0.978100
vn 0.207900 0.008300 -0.978100
vn 0.193500 0.037300 0.980400
vn 0.191700 0.037100 -0.980800
vn 0.205400 0.016600 0.978500
vn 0.204600 0.016600 -0.978700
vn 1.000000 -0.000000 0.000000
vn 0.000000 1.000000 0.000000
usemtl sword
s off
f 13/1/1 2/2/1 1/3/1
f 14/4/2 3/5/2 2/6/2
f 16/7/3 15/8/3 4/9/3
f 15/8/4 12/10/4 1/11/4
f 10/12/5 4/13/5 3/14/5
f 8/15/6 9/16/6 11/17/6
f 16/18/7 10/19/7 3/5/7
f 9/20/8 7/21/8 11/22/8
f 18/23/9 13/24/9 12/25/9
f 19/26/10 14/27/10 13/24/10
f 20/28/11 15/29/11 16/30/11
f 20/28/12 17/31/12 12/25/12
f 19/26/13 21/32/13 16/30/13
f 23/33/1 18/34/1 17/35/1
f 24/36/2 19/37/2 18/38/2
f 26/39/14 25/40/14 20/41/14
f 22/42/4 17/43/4 20/41/4
f 26/44/15 21/45/15 19/37/15
f 43/46/16 23/33/16 22/47/16
f 43/48/2 44/49/2 24/36/2
f 46/50/17 45/51/17 25/40/17
f 42/52/4 22/42/4 25/40/4
f 46/53/18 26/44/18 24/36/18
f 7/21/19 6/54/19 11/22/19
f 5/55/20 8/15/20 11/17/20
f 58/56/21 28/57/21 27/58/21
f 58/59/2 59/60/2 29/61/2
f 61/62/22 60/63/22 30/64/22
f 57/65/4 27/66/4 30/64/4
f 61/67/23 31/68/23 29/61/23
f 38/69/24 33/70/24 32/71/24
f 38/72/2 39/73/2 34/74/2
f 41/75/25 40/76/25 35/77/25
f 37/78/4 32/79/4 35/77/4
f 41/80/26 36/81/26 34/74/26
f 53/82/27 38/69/27 37/83/27
f 53/84/2 54/85/2 39/73/2
f 56/86/28 55/87/28 40/76/28
f 52/88/4 37/78/4 40/76/4
f 56/89/29 41/80/29 39/73/29
f 48/90/30 43/46/30 42/91/30
f 48/92/2 49/93/2 44/49/2
f 51/94/31 50/95/31 45/51/31
f 47/96/4 42/52/4 45/51/4
f 51/97/32 46/53/32 44/49/32
f 28/57/33 48/90/33 47/98/33
f 28/99/2 29/61/2 49/93/2
f 31/100/34 30/64/34 50/95/34
f 27/66/4 47/96/4 50/95/4
f 31/68/35 51/97/35 49/93/35
f 5/101/36 11/102/36 6/103/36
f 6/54/2 7/21/2 54/85/2
f 9/16/37 8/15/37 55/87/37
f 5/55/4 52/88/4 55/87/4
f 9/20/38 56/89/38 54/85/38
f 33/70/39 58/56/39 57/104/39
f 33/105/2 34/74/2 59/60/2
f 36/106/40 35/77/40 60/63/40
f 32/79/4 57/65/4 60/63/4
f 36/81/41 61/67/41 59/60/41
f 5/101/42 6/103/42 53/82/42
f 12/107/1 13/1/1 1/3/1
f 13/108/2 14/4/2 2/6/2
f 10/109/3 16/7/3 4/9/3
f 4/9/4 15/8/4 1/11/4
f 4/13/5 1/110/5 2/111/5
f 14/4/7 16/18/7 3/5/7
f 17/31/43 18/23/43 12/25/43
f 4/13/5 2/111/5 3/14/5
f 18/23/10 19/26/10 13/24/10
f 21/32/44 20/28/44 16/30/44
f 15/29/12 20/28/12 12/25/12
f 14/27/45 19/26/45 16/30/45
f 22/47/1 23/33/1 17/35/1
f 23/112/2 24/36/2 18/38/2
f 21/113/14 26/39/14 20/41/14
f 25/40/4 22/42/4 20/41/4
f 24/36/15 26/44/15 19/37/15
f 42/91/16 43/46/16 22/47/16
f 23/112/2 43/48/2 24/36/2
f 26/39/46 46/50/46 25/40/46
f 45/51/4 42/52/4 25/40/4
f 44/49/47 46/53/47 24/36/47
f 57/104/21 58/56/21 27/58/21
f 28/99/2 58/59/2 29/61/2
f 31/100/48 61/62/48 30/64/48
f 60/63/4 57/65/4 30/64/4
f 59/60/49 61/67/49 29/61/49
f 37/83/24 38/69/24 32/71/24
f 33/105/2 38/72/2 34/74/2
f 36/106/50 41/75/50 35/77/50
f 40/76/4 37/78/4 35/77/4
f 39/73/51 41/80/51 34/74/51
f 52/114/27 53/82/27 37/83/27
f 38/72/2 53/84/2 39/73/2
f 41/75/52 56/86/52 40/76/52
f 55/87/4 52/88/4 40/76/4
f 54/85/53 56/89/53 39/73/53
f 47/98/30 48/90/30 42/91/30
f 43/48/2 48/92/2 44/49/2
f 46/50/54 51/94/54 45/51/54
f 50/95/4 47/96/4 45/51/4
f 49/93/55 51/97/55 44/49/55
f 27/58/33 28/57/33 47/98/33
f 48/92/2 28/99/2 49/93/2
f 51/94/56 31/100/56 50/95/56
f 30/64/4 27/66/4 50/95/4
f 29/61/57 31/68/57 49/93/57
f 53/84/2 6/54/2 54/85/2
f 56/86/58 9/16/58 55/87/58
f 8/15/4 5/55/4 55/87/4
f 7/21/59 9/20/59 54/85/59
f 32/71/39 33/70/39 57/104/39
f 58/59/2 33/105/2 59/60/2
f 61/62/60 36/106/60 60/63/60
f 35/77/4 32/79/4 60/63/4
f 34/74/61 36/81/61 59/60/61
f 52/114/42 5/101/42 53/82/42
usemtl grip
f 62/115/5 63/116/5 64/117/5
f 77/118/5 70/119/5 66/120/5
f 62/121/62 66/122/62 67/123/62
f 67/124/4 68/125/4 64/126/4
f 68/127/1 69/128/1 65/129/1
f 62/130/2 65/131/2 69/132/2
f 73/133/4 75/134/4 76/135/4
f 78/136/2 77/137/2 80/138/2
f 73/139/5 71/140/5 68/141/5
f 70/142/62 77/143/62 78/144/62
f 74/145/63 76/146/63 72/147/63
f 79/148/1 81/149/1 80/150/1
f 65/151/5 62/115/5 64/117/5
f 69/152/5 68/153/5 71/154/5
f 77/118/5 69/152/5 80/155/5
f 63/156/62 62/121/62 67/123/62
f 63/157/4 67/124/4 64/126/4
f 69/152/5 77/118/5 66/120/5
f 69/152/5 71/154/5 80/155/5
f 64/158/1 68/127/1 65/129/1
f 66/159/2 62/130/2 69/132/2
f 74/160/4 73/133/4 76/135/4
f 81/161/2 78/136/2 80/138/2
f 67/162/5 66/163/5 70/164/5
f 73/139/5 67/162/5 75/165/5
f 78/166/63 81/167/63 79/168/63
f 76/169/62 70/142/62 78/144/62
f 67/162/5 73/139/5 68/141/5
f 67/162/5 70/164/5 75/165/5
f 78/166/63 79/168/63 76/146/63
f 76/169/62 75/170/62 70/142/62
f 73/171/1 72/172/1 71/173/1
f 76/146/63 79/168/63 72/147/63
f 73/171/1 74/174/1 72/172/1
f 71/173/1 72/172/1 79/148/1
f 80/150/1 71/173/1 79/148/1
